<svg viewBox="0 0 64 64" xmlns="http://www.w3.org/2000/svg" stroke-width="3" stroke="#252525" fill="none"><g id="SVGRepo_bgCarrier" stroke-width="0"></g><g id="SVGRepo_tracerCarrier" stroke-linecap="round" stroke-linejoin="round"></g><g id="SVGRepo_iconCarrier"><path d="M46.84,15.43l1,3a4.43,4.43,0,0,0,1.75,2.31l2.53,1.7a4.47,4.47,0,0,1,1.66,5.37l-1,2.43a4.46,4.46,0,0,0,0,3.35l1,2.37a4.47,4.47,0,0,1-1.54,5.32L50,42.92a4.44,4.44,0,0,0-1.7,2.41l-.81,2.84a4.46,4.46,0,0,1-4.67,3.23l-2.43-.2a4.41,4.41,0,0,0-3.18,1l-2.34,1.89a4.47,4.47,0,0,1-5.65,0l-2-1.64a4.45,4.45,0,0,0-2.84-1H20.82a4.45,4.45,0,0,1-4.35-3.46l-.64-2.72A4.44,4.44,0,0,0,14,42.51L11.84,41a4.45,4.45,0,0,1-1.69-5.21l1-2.74a4.44,4.44,0,0,0,0-3.09l-.9-2.4A4.46,4.46,0,0,1,12,22.28l2.37-1.53a4.48,4.48,0,0,0,1.88-2.55l.7-2.52a4.47,4.47,0,0,1,4.69-3.25l2.24.19a4.48,4.48,0,0,0,3.19-1l2.13-1.72a4.48,4.48,0,0,1,5.67,0l1.86,1.56a4.44,4.44,0,0,0,3.2,1l2.35-.17A4.47,4.47,0,0,1,46.84,15.43Z"></path><circle cx="26.44" cy="24.08" r="3.77"></circle><circle cx="37.94" cy="39.92" r="3.77"></circle><line x1="41.71" y1="22.19" x2="21.85" y2="42.06"></line></g></svg>